<svg width="26" height="26" viewBox="0 0 26 26" fill="none" xmlns="http://www.w3.org/2000/svg">
<circle cx="13" cy="13" r="13" fill="#005FF9"/>
<path d="M15.4065 13C15.4058 13.638 15.1521 14.2498 14.7009 14.7009C14.2498 15.1521 13.638 15.4058 13 15.4065C12.362 15.4058 11.7502 15.1521 11.2991 14.7009C10.8479 14.2498 10.5942 13.638 10.5935 13C10.5942 12.362 10.8479 11.7502 11.2991 11.2991C11.7502 10.8479 12.362 10.5942 13 10.5935C13.638 10.5942 14.2498 10.8479 14.7009 11.2991C15.1521 11.7502 15.4058 12.362 15.4065 13ZM13 5C8.589 5 5 8.589 5 13C5 17.411 8.589 21 13 21C14.616 21 16.1745 20.519 17.5065 19.6085L17.5295 19.5925L16.4515 18.3395L16.4335 18.3515C15.4097 19.0106 14.2176 19.3607 13 19.36C9.493 19.36 6.64 16.507 6.64 13C6.64 9.493 9.493 6.64 13 6.64C16.507 6.64 19.36 9.493 19.36 13C19.36 13.4545 19.3095 13.9145 19.21 14.367C19.009 15.1925 18.431 15.4455 17.997 15.412C17.5605 15.3765 17.05 15.0655 17.0465 14.3045V13C17.0465 10.7685 15.2315 8.9535 13 8.9535C10.7685 8.9535 8.9535 10.7685 8.9535 13C8.9535 15.2315 10.7685 17.0465 13 17.0465C13.5333 17.0478 14.0614 16.9428 14.5537 16.7377C15.0459 16.5326 15.4924 16.2315 15.867 15.852C16.0843 16.1928 16.3781 16.4782 16.725 16.6856C17.0719 16.8929 17.4624 17.0165 17.8655 17.0465C18.5238 17.0978 19.178 16.906 19.7045 16.5075C20.184 16.1435 20.542 15.617 20.74 14.9845C20.7715 14.8825 20.8295 14.6485 20.83 14.647L20.8315 14.6385C20.948 14.131 21 13.625 21 13C21 8.589 17.411 5 13 5Z" fill="#FF9E00"/>
</svg>
