<!-- icon666.com - MILLIONS vector ICONS FREE --><svg viewBox="0 0 176 176" xmlns="http://www.w3.org/2000/svg"><g id="Layer_2" data-name="Layer 2"><g id="_66.odnoklassniki" data-name="66.odnoklassniki"><circle id="background" cx="88" cy="88" fill="#f96600" r="88"></circle><g id="icon" fill="#fff"><path d="m82.59 110.48c-8.53-.89-16.22-3-22.8-8.14-.82-.64-1.66-1.26-2.41-2-2.88-2.77-3.17-5.94-.89-9.2 1.95-2.8 5.22-3.55 8.63-1.94a14.38 14.38 0 0 1 1.88 1.14 37.36 37.36 0 0 0 41.43.38 11.26 11.26 0 0 1 4-2.08 6.31 6.31 0 0 1 7.25 2.89c1.8 2.94 1.78 5.8-.44 8.08a33.3 33.3 0 0 1 -12.05 7.79 56.61 56.61 0 0 1 -13.68 3.07c.7.77 1 1.14 1.48 1.58 6.33 6.37 12.69 12.71 19 19.09a6.28 6.28 0 0 1 1.42 7.4 7.48 7.48 0 0 1 -7 4.39 6.82 6.82 0 0 1 -4.45-2.28c-4.78-4.81-9.65-9.53-14.33-14.43-1.36-1.42-2-1.15-3.22.08-4.81 5-9.7 9.83-14.61 14.67a6.14 6.14 0 0 1 -7.4 1.33 7.49 7.49 0 0 1 -4.32-6.89 6.89 6.89 0 0 1 2.32-4.62q9.42-9.39 18.78-18.79c.42-.43.82-.88 1.41-1.52z"></path><path d="m87.78 88.68a27.84 27.84 0 1 1 28-27.48 27.86 27.86 0 0 1 -28 27.48zm13.83-27.87a13.62 13.62 0 1 0 -13.54 13.66 13.57 13.57 0 0 0 13.54-13.66z"></path></g></g></g></svg>